<svg width="49" height="47" viewBox="0 0 49 47" fill="none" xmlns="http://www.w3.org/2000/svg">
<path d="M1 1H9.53333L15.2507 29.5653C15.4457 30.5475 15.9801 31.4298 16.7601 32.0577C17.5401 32.6856 18.5162 33.0192 19.5173 33H40.2533C41.2545 33.0192 42.2305 32.6856 43.0106 32.0577C43.7906 31.4298 44.3249 30.5475 44.52 29.5653L47.9333 11.6667H11.6667M20.2 43.6667C20.2 44.8449 19.2449 45.8 18.0667 45.8C16.8885 45.8 15.9333 44.8449 15.9333 43.6667C15.9333 42.4885 16.8885 41.5333 18.0667 41.5333C19.2449 41.5333 20.2 42.4885 20.2 43.6667ZM43.6667 43.6667C43.6667 44.8449 42.7115 45.8 41.5333 45.8C40.3551 45.8 39.4 44.8449 39.4 43.6667C39.4 42.4885 40.3551 41.5333 41.5333 41.5333C42.7115 41.5333 43.6667 42.4885 43.6667 43.6667Z" stroke="white" stroke-width="2" stroke-linecap="round" stroke-linejoin="round"/>
</svg>
