<?xml version="1.0" standalone="no"?>
<!DOCTYPE svg PUBLIC "-//W3C//DTD SVG 20010904//EN"
 "http://www.w3.org/TR/2001/REC-SVG-20010904/DTD/svg10.dtd">
<svg version="1.0" xmlns="http://www.w3.org/2000/svg"
 width="642.000000pt" height="642.000000pt" viewBox="0 0 642.000000 642.000000"
 preserveAspectRatio="xMidYMid meet">

<g transform="translate(0.000000,642.000000) scale(0.100000,-0.100000)"
fill="#000000" stroke="none">
<path d="M3000 5910 c-499 -52 -969 -244 -1346 -551 -412 -334 -727 -827 -853
-1334 -302 -1216 342 -2472 1506 -2934 290 -115 524 -161 855 -168 319 -7 526
20 803 108 416 131 742 333 1045 645 365 375 587 810 676 1321 32 182 43 479
25 654 -62 592 -310 1118 -726 1534 -205 206 -393 340 -660 471 -252 123 -497
199 -770 239 -130 19 -436 27 -555 15z m289 -125 c35 -30 55 -83 46 -125 -3
-16 -22 -43 -41 -60 -28 -24 -44 -30 -80 -30 -39 0 -51 5 -80 34 -30 30 -34
41 -34 84 0 78 42 120 122 121 25 1 46 -7 67 -24z m-213 -10 c-9 -13 -16 -33
-16 -44 0 -25 -28 -41 -73 -41 -51 0 -209 -29 -334 -61 -385 -98 -756 -313
-1040 -600 -133 -135 -185 -199 -293 -360 -186 -279 -310 -606 -358 -945 -14
-100 -20 -124 -33 -124 -9 0 -33 -11 -53 -25 l-36 -24 0 27 c0 58 40 293 69
408 112 445 342 843 666 1153 317 303 678 500 1107 605 126 31 273 54 352 55
l58 1 -16 -25z m461 10 c138 -18 276 -50 426 -99 633 -207 1150 -669 1427
-1276 115 -251 169 -456 216 -819 l6 -44 -29 21 c-16 11 -41 24 -55 27 -24 6
-27 12 -43 123 -107 725 -526 1339 -1152 1691 -250 141 -592 252 -843 276 -95
9 -110 13 -110 33 0 9 -7 30 -15 46 -8 15 -15 30 -15 32 0 8 72 4 187 -11z
m-431 -211 c39 -41 100 -59 154 -44 44 12 96 51 105 80 8 26 39 26 192 0 839
-143 1502 -706 1766 -1500 46 -138 91 -335 103 -454 6 -57 5 -66 -9 -66 -28 0
-83 -65 -96 -112 -21 -76 13 -159 80 -193 35 -19 36 -36 13 -192 -55 -368
-221 -758 -441 -1033 -322 -403 -726 -664 -1231 -795 -134 -35 -366 -68 -371
-53 -2 7 -21 30 -42 52 -37 40 -39 41 -108 41 -66 0 -72 -2 -105 -34 -20 -19
-38 -43 -42 -53 -6 -20 -23 -19 -219 14 -518 88 -1021 379 -1338 773 -274 340
-425 686 -487 1110 -20 140 -20 151 -4 160 68 40 104 95 104 157 0 50 -37 116
-79 140 -37 21 -38 23 -33 72 8 98 62 345 102 466 80 244 239 528 412 735 344
412 851 693 1400 774 113 17 124 17 133 3 6 -9 24 -31 41 -48z m-2059 -2058
c27 -29 33 -44 33 -78 0 -73 -50 -127 -118 -128 -77 0 -128 58 -119 137 12
109 131 149 204 69z m4516 6 c23 -23 31 -42 35 -80 4 -46 2 -53 -29 -86 -81
-89 -210 -38 -209 81 1 110 125 163 203 85z m37 -313 c-52 -543 -254 -1002
-622 -1410 -126 -141 -350 -322 -522 -426 -267 -159 -559 -266 -856 -312 -183
-29 -250 -35 -250 -23 0 6 4 14 10 17 5 3 14 23 20 45 l10 38 68 7 c760 77
1464 564 1804 1248 115 232 200 513 222 737 13 132 15 138 44 145 15 3 38 14
52 25 14 10 26 17 27 16 2 -1 -2 -49 -7 -107z m-4681 62 c24 -7 26 -12 42
-147 32 -250 98 -472 208 -699 145 -299 347 -555 606 -770 139 -114 263 -193
450 -285 264 -130 477 -192 767 -225 52 -6 59 -9 64 -33 4 -15 13 -40 21 -56
l15 -28 -39 6 c-21 3 -67 8 -103 12 -273 26 -595 129 -865 275 -680 369 -1127
1028 -1230 1812 -8 65 -15 132 -15 149 l0 30 27 -17 c14 -10 38 -21 52 -24z
m2346 -2015 c72 -30 98 -127 50 -185 -53 -62 -137 -62 -191 2 -22 27 -25 38
-22 79 6 53 27 84 73 104 39 17 48 17 90 0z"/>
<path d="M3176 5734 c-33 -32 -4 -104 42 -104 32 0 62 29 62 60 0 36 -24 60
-60 60 -16 0 -36 -7 -44 -16z"/>
<path d="M2921 5429 c-116 -13 -166 -36 -191 -91 -24 -53 -24 -73 -4 -268 23
-228 30 -255 70 -295 50 -51 90 -58 231 -42 66 8 129 20 142 26 46 25 49 90 6
131 -24 22 -26 22 -136 11 -62 -7 -115 -8 -119 -4 -6 6 -19 88 -15 93 0 1 52
7 115 15 96 11 117 17 132 35 22 27 23 61 3 100 -20 38 -35 41 -135 30 -131
-15 -127 -16 -133 33 -3 23 -2 45 2 50 4 4 56 11 116 16 100 7 110 10 132 35
13 15 23 36 23 47 0 28 -26 75 -45 83 -21 8 -86 6 -194 -5z"/>
<path d="M3387 5426 c-46 -17 -85 -51 -99 -86 -12 -33 -58 -371 -58 -433 0
-73 39 -132 103 -156 38 -15 249 -35 281 -27 56 14 71 109 21 142 -13 8 -71
20 -132 27 l-108 12 3 45 c2 25 7 48 10 52 4 3 57 1 119 -5 103 -10 114 -9
132 7 39 36 35 112 -7 135 -11 6 -46 13 -78 16 -33 3 -79 8 -103 11 l-43 6 5
44 c2 25 7 48 11 51 3 3 45 1 94 -6 49 -6 104 -11 124 -11 46 0 73 29 73 81 0
61 -23 76 -135 89 -52 6 -113 12 -135 15 -22 2 -57 -2 -78 -9z"/>
<path d="M3887 5330 c-20 -16 -43 -74 -116 -293 -50 -149 -91 -282 -91 -295 0
-35 43 -72 83 -72 44 0 71 26 96 97 28 78 30 80 78 109 l42 24 10 -37 c6 -21
20 -83 32 -138 27 -127 32 -140 64 -161 22 -14 32 -15 65 -5 73 22 76 61 20
272 -22 83 -40 152 -40 154 0 2 33 20 73 40 77 40 127 72 139 90 4 5 8 25 8
43 0 41 -38 82 -76 82 -15 0 -87 -35 -166 -80 -77 -44 -141 -80 -143 -80 -2 0
11 42 27 93 36 107 33 139 -12 162 -39 20 -62 19 -93 -5z"/>
<path d="M2295 5286 c-138 -44 -216 -144 -223 -286 -6 -122 45 -248 134 -330
89 -82 183 -104 295 -70 59 18 81 30 124 74 63 62 91 133 82 206 -8 65 -59
174 -91 195 -25 17 -29 16 -125 -20 -55 -20 -109 -43 -120 -51 -30 -22 -28
-78 4 -109 28 -29 60 -31 112 -10 42 18 53 10 53 -38 0 -54 -81 -105 -147 -92
-80 15 -160 147 -150 248 8 87 92 144 176 119 54 -17 75 -15 105 9 32 26 36
84 7 121 -36 45 -149 61 -236 34z"/>
<path d="M4527 4813 c-4 -3 -7 -14 -7 -24 0 -10 -9 -21 -20 -24 -19 -6 -29
-35 -12 -35 4 0 13 -13 20 -30 8 -16 19 -30 26 -30 13 0 76 66 76 79 0 7 -66
71 -73 71 -2 0 -7 -3 -10 -7z"/>
<path d="M1797 4699 c-3 -11 3 -19 17 -23 34 -9 42 -6 23 8 -15 12 -16 14 -2
20 9 3 18 -1 21 -9 4 -8 12 -15 18 -15 7 0 18 -11 24 -25 16 -34 15 -38 -3
-31 -17 6 -18 0 -5 -29 7 -17 9 -17 9 -2 1 9 6 17 12 17 6 0 8 -7 5 -16 -3 -9
-2 -12 5 -8 7 4 10 -4 8 -22 -4 -57 -1 -68 17 -53 14 11 19 9 36 -11 l20 -25
-5 61 c-3 33 -14 80 -26 104 -11 23 -18 47 -15 51 3 5 -2 6 -10 3 -8 -3 -24 0
-36 6 -11 6 -41 12 -65 14 -34 2 -45 -1 -48 -15z"/>
<path d="M1751 4693 c-14 -12 -18 -22 -12 -32 7 -11 11 -9 21 10 7 13 18 27
24 31 8 6 8 8 0 8 -7 0 -21 -8 -33 -17z"/>
<path d="M3050 4694 c-229 -29 -452 -111 -641 -235 -105 -68 -263 -221 -347
-334 -150 -202 -242 -484 -242 -743 0 -64 3 -134 6 -155 l7 -38 22 21 c22 20
23 30 24 148 1 250 67 482 194 675 76 116 144 194 239 275 147 124 280 200
452 257 147 50 234 66 381 72 164 7 305 -13 466 -67 185 -61 314 -133 467
-262 68 -57 85 -68 97 -58 24 20 18 35 -29 78 -180 166 -437 295 -691 347 -78
16 -334 28 -405 19z"/>
<path d="M4260 4590 c0 -5 5 -10 11 -10 5 0 7 5 4 10 -3 6 -8 10 -11 10 -2 0
-4 -4 -4 -10z"/>
<path d="M3052 4578 c-15 -15 -15 -35 0 -40 9 -3 13 -46 15 -151 l2 -147 -24
0 c-19 0 -25 7 -30 33 -6 32 -2 234 6 272 3 13 -2 21 -15 23 -30 6 -39 -12
-22 -46 12 -24 16 -62 16 -157 l0 -125 -25 0 c-25 0 -25 1 -23 73 2 57 -1 81
-16 109 -18 34 -18 37 -3 53 13 12 15 21 7 36 -13 23 -33 25 -50 4 -10 -13
-10 -19 4 -33 9 -10 16 -25 16 -33 0 -8 7 -32 15 -54 20 -57 20 -151 -1 -159
-28 -11 -34 3 -34 74 0 67 0 68 -35 89 -19 11 -39 31 -44 44 -12 30 -36 40
-51 22 -20 -24 -4 -43 53 -69 59 -26 67 -39 67 -113 0 -39 -2 -43 -25 -43 -24
0 -25 3 -25 53 0 51 -2 55 -35 72 -19 11 -37 16 -41 13 -3 -4 8 -14 25 -23 28
-14 31 -20 31 -65 0 -43 -3 -50 -20 -50 -17 0 -20 7 -20 49 0 45 -3 51 -34 70
-18 12 -40 21 -47 21 -8 0 5 -12 29 -26 39 -24 42 -28 42 -70 l0 -44 -64 0
-65 0 -3 -41 -3 -42 -110 2 c-60 1 -115 7 -121 12 -8 7 -17 4 -29 -7 -15 -15
-15 -18 -1 -33 12 -12 19 -12 28 -3 8 8 50 12 125 12 106 0 113 -1 113 -20 0
-19 -7 -20 -140 -20 -185 0 -187 -18 -2 -22 114 -3 137 -6 137 -18 0 -13 -22
-15 -144 -13 -80 1 -149 7 -154 12 -15 15 -47 -6 -47 -30 0 -27 27 -35 49 -15
14 13 43 16 160 16 142 0 142 0 139 -22 -3 -22 -8 -23 -93 -26 -76 -2 -93 -5
-107 -22 -13 -16 -31 -21 -78 -23 -60 -2 -63 -1 -89 32 -62 82 -65 85 -90 72
-30 -16 -22 -35 15 -36 22 0 29 -5 29 -20 0 -29 -41 -32 -71 -4 -23 21 -24 21
-24 3 0 -25 10 -38 37 -53 18 -9 29 -8 54 5 30 15 32 15 58 -9 24 -23 30 -24
86 -16 41 5 65 14 77 28 14 18 27 21 108 21 l91 0 -3 -47 -3 -48 -47 -3 c-25
-2 -76 1 -112 6 -49 6 -66 5 -70 -4 -8 -21 5 -24 121 -24 106 0 113 -1 113
-20 0 -19 -7 -20 -142 -20 -142 0 -142 0 -164 27 -22 28 -54 27 -54 -2 0 -12
6 -15 19 -10 14 4 23 0 31 -15 10 -19 20 -20 160 -20 l150 0 0 -25 0 -25 -171
0 -171 0 -39 43 c-21 23 -38 49 -39 58 0 24 -31 33 -49 14 -20 -19 -3 -51 25
-48 12 1 32 -15 53 -43 l33 -44 180 0 179 0 -3 -32 -3 -33 -270 0 c-242 0
-272 2 -287 17 -22 22 -48 13 -48 -16 l0 -21 302 0 c284 0 303 -1 306 -18 4
-17 -13 -18 -335 -16 -317 1 -338 0 -338 -16 0 -10 8 -23 18 -29 14 -9 20 -7
28 7 9 16 35 17 319 17 303 0 310 0 310 -20 0 -19 -7 -20 -219 -20 -181 0
-221 3 -231 15 -14 17 -50 3 -50 -19 0 -22 29 -41 42 -28 8 8 79 12 235 12
l223 0 0 -30 0 -30 -204 0 c-126 0 -207 4 -211 10 -3 6 -17 10 -31 10 -22 0
-25 -4 -22 -27 2 -20 9 -29 26 -31 12 -2 22 1 22 7 0 8 68 11 210 11 l210 0 0
-107 0 -108 332 3 c233 2 334 6 337 13 2 6 16 25 31 42 23 26 38 32 101 41
l74 12 3 249 c2 226 1 251 -15 263 -11 8 -56 12 -134 12 -109 0 -118 1 -124
20 -3 11 -15 20 -26 20 -17 0 -19 7 -19 65 0 50 3 65 14 65 10 0 17 -15 21
-44 6 -37 10 -43 26 -39 15 4 19 0 19 -21 l0 -26 120 0 120 0 -2 173 -3 172
-120 3 -121 3 4 67 c3 37 8 69 13 70 5 2 9 30 9 62 0 32 5 62 10 65 15 9 12
52 -5 59 -8 3 -21 -2 -30 -10 -17 -18 -19 -30 -5 -39 6 -3 10 -35 10 -71 0
-36 -4 -64 -10 -64 -6 0 -10 -30 -10 -70 0 -63 -2 -70 -20 -70 -18 0 -20 7
-20 88 0 52 5 93 11 99 17 17 3 43 -21 43 -24 0 -38 -26 -21 -43 6 -6 11 -47
11 -99 0 -81 -2 -88 -20 -88 -19 0 -20 7 -20 138 0 89 4 142 11 149 16 16 3
45 -18 41 -16 -3 -17 -18 -14 -166 l3 -162 -26 0 -26 0 0 145 c0 127 2 145 18
154 13 8 15 14 6 28 -14 23 -36 27 -52 11z m416 -395 c-2 -17 -9 -28 -18 -28
-9 0 -16 11 -18 28 -3 22 1 27 18 27 17 0 21 -5 18 -27z m-660 -55 c3 -24 0
-28 -21 -28 -17 0 -26 7 -30 22 -8 29 0 40 26 36 16 -2 23 -11 25 -30z m-72 6
c-3 -9 -6 -20 -6 -25 0 -5 -11 -9 -25 -9 -20 0 -25 5 -25 25 0 21 5 25 31 25
24 0 30 -3 25 -16z m404 -44 c0 -10 -4 -22 -10 -25 -5 -3 -10 -46 -10 -95 0
-85 -5 -100 -36 -100 -5 0 -5 225 0 231 3 3 16 5 30 7 20 1 26 -3 26 -18z
m105 -10 c-5 -8 -11 -8 -17 -2 -6 6 -7 16 -3 22 5 8 11 8 17 2 6 -6 7 -16 3
-22z m55 10 c0 -11 -6 -20 -14 -20 -18 0 -29 16 -21 30 11 18 35 11 35 -10z
m55 -1 c0 -7 -8 -15 -17 -17 -18 -3 -25 18 -11 32 10 10 28 1 28 -15z m55 1
c0 -13 -7 -20 -20 -20 -13 0 -20 7 -20 20 0 13 7 20 20 20 13 0 20 -7 20 -20z
m-672 -42 c3 -25 0 -28 -27 -28 -26 0 -31 4 -31 23 0 30 9 39 35 35 13 -2 21
-12 23 -30z m70 -1 c3 -24 0 -27 -27 -27 -27 0 -29 3 -27 28 4 32 1 29 29 27
16 -1 23 -9 25 -28z m362 1 c0 -13 3 -33 6 -45 5 -19 2 -23 -15 -23 -18 0 -21
6 -21 45 0 33 4 45 15 45 9 0 15 -9 15 -22z m-362 -80 c3 -25 0 -28 -27 -28
-27 0 -29 3 -27 28 2 15 4 28 5 30 0 2 11 2 24 0 16 -2 23 -11 25 -30z m-68
-3 c0 -21 -5 -25 -30 -25 -25 0 -30 4 -30 25 0 21 5 25 30 25 25 0 30 -4 30
-25z m320 -80 c0 -66 -2 -67 -145 -63 -86 3 -100 5 -103 21 -3 15 7 17 107 17
99 0 111 2 109 18 -3 40 3 62 17 62 12 0 15 -13 15 -55z m-342 8 c-5 -25 -28
-28 -28 -4 0 12 6 21 16 21 9 0 14 -7 12 -17z m0 -66 c2 -10 -3 -17 -12 -17
-10 0 -16 9 -16 21 0 24 23 21 28 -4z m391 -16 c8 -15 7 -20 -6 -25 -21 -8
-35 6 -27 27 8 22 21 21 33 -2z m379 2 c5 -18 -22 -26 -63 -19 -22 4 -35 13
-35 22 0 12 10 14 47 12 26 -2 48 -9 51 -15z m-598 -33 c0 -17 -7 -20 -40 -20
-33 0 -40 3 -40 20 0 17 7 20 40 20 33 0 40 -3 40 -20z m530 -15 c0 -22 -22
-28 -53 -16 -40 15 -33 31 13 31 29 0 40 -4 40 -15z m-315 -30 c0 -28 -29 -25
-33 3 -3 19 0 23 15 20 10 -2 18 -12 18 -23z m55 0 c0 -16 -6 -25 -15 -25 -9
0 -15 9 -15 25 0 16 6 25 15 25 9 0 15 -9 15 -25z m-210 -5 c0 -17 -7 -20 -40
-20 -27 0 -40 4 -40 13 0 21 11 27 47 27 26 0 33 -4 33 -20z m418 -17 c-2 -12
-14 -19 -35 -21 -30 -3 -32 -6 -35 -44 -5 -63 -28 -62 -28 1 0 39 4 51 15 51
8 0 15 7 15 15 0 11 11 15 36 15 28 0 35 -3 32 -17z m-368 -23 c0 -16 -7 -20
-35 -20 -35 0 -50 22 -22 33 31 13 57 7 57 -13z m48 -52 c-3 -43 -23 -63 -31
-31 -3 10 -5 -16 -6 -59 -1 -71 0 -76 19 -71 11 3 20 14 20 24 0 15 7 19 40
19 33 0 40 -3 40 -20 0 -16 -7 -20 -30 -20 -23 0 -30 -4 -30 -20 0 -13 -7 -20
-19 -20 -10 0 -21 -9 -24 -20 -3 -12 -14 -20 -26 -20 -12 0 -21 -4 -21 -10 0
-5 -11 -10 -25 -10 -24 0 -25 3 -25 60 0 49 3 58 15 54 9 -4 15 -19 15 -35 0
-16 5 -29 10 -29 6 0 10 40 10 100 0 82 3 100 15 100 9 0 15 9 15 25 0 19 5
25 21 25 18 0 20 -5 17 -42z m300 -101 c2 -88 0 -107 -12 -107 -8 0 -21 -3
-30 -6 -11 -4 -16 -1 -16 10 0 9 -8 16 -20 16 -14 0 -20 6 -18 17 2 13 -5 18
-26 20 -29 2 -49 20 -40 35 3 4 -13 8 -35 8 -30 0 -41 4 -41 15 0 10 11 15 35
17 19 0 41 1 48 2 6 1 11 -7 10 -17 -1 -16 4 -18 32 -13 37 7 54 -7 35 -29
-11 -13 -7 -15 19 -15 l32 0 -1 73 c-2 92 -2 89 13 85 8 -3 13 -37 15 -111z
m-600 -4 c3 -20 -1 -23 -27 -23 -27 0 -31 4 -31 26 0 22 4 25 28 22 19 -2 28
-9 30 -25z m70 0 c-2 -22 -8 -28 -28 -28 -20 0 -26 6 -28 28 -3 24 0 27 28 27
28 0 31 -3 28 -27z m577 -68 c7 -62 3 -75 -27 -75 -14 0 -18 5 -14 16 3 9 6
38 6 65 0 35 4 49 14 49 9 0 16 -18 21 -55z m-653 0 c0 -8 1 -20 2 -27 1 -6
-11 -12 -26 -12 -20 -1 -28 4 -31 21 -5 28 0 33 30 33 13 0 24 -6 25 -15z m78
-16 c0 -27 -3 -30 -27 -27 -22 2 -29 9 -31 31 -3 24 0 27 27 27 28 0 31 -3 31
-31z m-72 -76 c-2 -24 -8 -28 -33 -28 -28 0 -34 12 -26 50 1 3 15 5 32 5 27 0
30 -3 27 -27z m72 -4 c0 -27 -3 -30 -27 -27 -22 2 -29 9 -31 31 -3 24 0 27 27
27 28 0 31 -3 31 -31z m-110 -94 c0 -18 -5 -25 -20 -25 -15 0 -20 7 -20 25 0
18 5 25 20 25 15 0 20 -7 20 -25z m260 -2 c0 -9 -10 -13 -30 -11 -16 1 -30 8
-30 14 0 8 13 12 30 12 18 -1 30 -6 30 -15z m77 3 c-2 -6 -11 -13 -21 -14 -23
-5 -49 6 -41 17 8 14 66 10 62 -3z m53 -3 c0 -7 -9 -13 -20 -13 -11 0 -20 6
-20 13 0 7 9 13 20 13 11 0 20 -6 20 -13z"/>
<path d="M4585 4524 c-71 -13 -140 -26 -153 -29 -13 -3 -62 -55 -119 -128 -54
-67 -148 -184 -210 -260 -62 -75 -113 -141 -113 -145 0 -4 32 -29 71 -55 70
-46 72 -47 86 -27 20 28 39 25 128 -15 l78 -36 -6 -34 -6 -35 67 -20 c67 -20
174 -41 180 -35 2 2 15 95 28 207 13 112 30 230 37 263 13 59 13 61 -15 104
-34 55 -28 65 15 23 l33 -32 42 17 c42 18 42 19 37 58 l-6 40 21 -37 c11 -20
32 -46 47 -58 15 -11 28 -29 29 -38 1 -9 10 -38 20 -64 18 -46 18 -48 -4 -99
-12 -29 -20 -54 -18 -57 12 -12 64 32 83 70 21 41 21 48 9 150 l-12 108 -85
87 c-46 49 -88 91 -94 95 -13 10 -18 9 -170 -18z"/>
<path d="M1746 4525 c4 -8 10 -15 15 -15 4 0 6 7 3 15 -4 8 -10 15 -15 15 -4
0 -6 -7 -3 -15z"/>
<path d="M1710 4494 c0 -7 27 -34 34 -34 13 0 5 28 -10 34 -19 7 -24 8 -24 0z"/>
<path d="M2633 4424 c-4 -11 1 -22 12 -31 16 -11 21 -11 33 1 8 8 12 22 9 30
-8 21 -46 21 -54 0z"/>
<path d="M1868 4333 c-4 -34 -48 -54 -78 -35 -30 18 -46 15 -69 -15 -20 -25
-20 -27 -4 -45 15 -17 15 -21 0 -53 -13 -28 -21 -34 -44 -32 -27 2 -28 0 -28
-43 0 -39 3 -45 25 -50 30 -7 46 -62 24 -81 -19 -15 -17 -29 5 -56 21 -25 41
-29 58 -12 18 18 61 -14 65 -48 2 -23 8 -29 34 -31 28 -3 31 0 48 50 9 29 20
59 23 66 3 8 -7 12 -36 12 -33 0 -49 7 -78 33 -31 29 -37 41 -41 89 -4 52 -2
58 29 93 61 66 155 59 209 -16 l27 -38 23 32 c13 17 23 40 23 50 -1 10 5 21
13 24 21 8 17 27 -11 53 -22 21 -27 22 -50 10 -35 -19 -73 0 -81 40 -6 27 -10
30 -45 30 -34 0 -38 -3 -41 -27z"/>
<path d="M4990 4289 c0 -5 5 -7 10 -4 6 3 10 8 10 11 0 2 -4 4 -10 4 -5 0 -10
-5 -10 -11z"/>
<path d="M1567 4122 c-10 -10 -17 -23 -17 -28 0 -5 5 -2 10 6 6 9 10 10 10 3
0 -22 -21 -25 -27 -4 -4 17 -9 19 -24 10 -10 -5 -18 -13 -18 -17 1 -4 1 -14 0
-22 -1 -13 -2 -13 -11 0 -8 12 -10 9 -10 -14 0 -23 3 -27 20 -23 17 4 20 0 20
-24 0 -16 4 -29 9 -29 5 0 13 -17 18 -37 4 -20 15 -38 23 -40 9 -3 11 -1 5 4
-13 11 -13 36 1 48 16 14 25 45 14 45 -6 0 -9 29 -7 70 2 39 3 70 2 70 -1 0
-9 -8 -18 -18z"/>
<path d="M3661 3940 c-57 -12 -81 -35 -81 -77 0 -27 10 -43 48 -82 96 -96 378
-239 651 -331 393 -132 641 -120 551 27 -27 44 -88 104 -163 159 l-62 46 -6
-34 c-9 -56 -14 -60 -82 -52 -34 4 -99 17 -145 30 -46 14 -94 21 -107 18 -34
-8 -175 60 -175 85 0 12 -31 38 -85 75 -47 31 -89 63 -92 72 -3 8 2 23 11 33
10 11 13 21 9 24 -17 11 -229 16 -272 7z"/>
<path d="M5002 3906 c-22 -24 -22 -25 -5 -56 25 -45 60 -83 67 -72 7 11 56 22
56 13 0 -4 -19 -13 -42 -21 -58 -20 -88 -67 -88 -134 0 -79 46 -126 125 -126
82 0 145 61 145 140 0 55 -47 113 -102 125 -37 9 -36 24 2 21 17 -1 30 2 30 6
0 24 -138 131 -164 128 0 0 -11 -11 -24 -24z m183 -218 c23 -27 26 -38 21 -72
-9 -57 -38 -79 -94 -73 -51 6 -83 35 -86 78 -1 16 1 29 6 29 4 0 8 5 8 12 0
27 43 58 81 58 30 0 43 -7 64 -32z"/>
<path d="M1559 3890 c0 -3 -2 -25 -4 -50 l-3 -45 15 38 c12 29 13 41 4 50 -6
6 -11 9 -12 7z"/>
<path d="M4172 3838 c-14 -18 -42 -75 -42 -86 0 -9 119 -67 125 -60 8 10 45
89 45 98 0 6 -25 21 -56 35 -66 29 -59 28 -72 13z"/>
<path d="M1510 3804 c0 -8 5 -12 10 -9 6 3 10 10 10 16 0 5 -4 9 -10 9 -5 0
-10 -7 -10 -16z"/>
<path d="M1493 3744 c-7 -3 -9 -12 -6 -20 5 -13 -8 -19 -30 -15 -5 1 -6 -3 -2
-9 10 -16 32 -12 40 8 8 17 15 43 12 41 -1 0 -7 -3 -14 -5z"/>
<path d="M1413 3684 c-7 -7 -13 -20 -13 -29 0 -15 1 -15 16 -1 8 9 14 22 12
30 -2 12 -5 12 -15 0z"/>
<path d="M1447 3534 c-4 -4 -7 -18 -7 -31 0 -18 -9 -28 -37 -40 -36 -14 -38
-14 -55 7 -20 25 -45 21 -74 -11 -15 -17 -16 -24 -6 -39 27 -43 0 -90 -51 -90
-30 0 -33 -3 -42 -52 -6 -33 -4 -37 22 -50 40 -19 44 -68 8 -92 l-25 -17 20
-39 c20 -39 22 -40 59 -34 33 5 41 3 50 -15 9 -15 9 -26 1 -42 -15 -28 -7 -45
31 -65 32 -16 33 -16 54 10 16 19 30 26 57 26 33 0 38 -4 48 -35 12 -38 16
-38 80 -14 22 8 25 15 22 42 -3 28 1 34 31 50 28 15 39 17 57 7 18 -10 25 -8
42 7 40 36 43 55 14 78 -27 22 -27 23 -12 59 9 21 25 40 41 46 19 7 25 17 25
39 0 47 -10 61 -41 61 -22 0 -32 7 -45 32 -15 29 -15 34 0 59 9 15 16 29 16
32 0 2 -16 17 -36 32 l-35 27 -23 -21 c-21 -20 -23 -20 -56 -3 -25 12 -36 25
-38 45 -2 15 -9 27 -16 27 -8 0 -26 3 -42 6 -16 3 -32 2 -37 -2z m113 -183
c105 -55 108 -209 4 -268 -70 -40 -150 -23 -202 45 -34 45 -37 127 -6 169 52
70 134 92 204 54z"/>
<path d="M1426 3244 c-7 -17 10 -54 24 -54 12 0 12 11 0 30 -5 9 -5 19 2 27 8
10 6 13 -5 13 -8 0 -18 -7 -21 -16z"/>
<path d="M4310 3383 c-19 -2 -154 -17 -300 -33 -146 -16 -335 -36 -420 -45
-188 -20 -226 -29 -245 -59 -14 -21 -13 -41 4 -202 11 -98 27 -251 36 -339 14
-146 17 -161 40 -184 l25 -25 112 11 c62 7 255 28 428 48 l315 35 37 43 c29
34 39 40 49 30 7 -7 23 -13 35 -13 17 0 23 7 26 27 3 27 11 32 76 49 18 5 15
58 -18 354 -16 146 -30 266 -30 268 0 1 -15 11 -32 22 -32 19 -59 22 -138 13z
m133 -307 c3 -8 9 -57 13 -109 l7 -94 -53 -7 c-29 -4 -54 -6 -56 -4 -4 4 -24
166 -24 195 0 23 15 30 71 32 23 1 39 -4 42 -13z m-163 -41 c0 -49 7 -46 -120
-60 -30 -4 -152 -17 -270 -31 -118 -13 -231 -24 -251 -24 -36 0 -37 1 -41 41
-4 46 -5 46 42 51 28 2 35 -1 38 -17 2 -11 7 -23 10 -27 4 -3 120 7 257 23
138 16 251 29 253 29 1 0 2 14 2 30 0 28 2 30 40 30 l40 0 0 -45z m-737 -67
c3 -13 9 -62 12 -109 l7 -86 -32 -7 c-51 -10 -77 -7 -83 8 -3 8 -9 57 -13 109
-7 106 -9 103 67 106 30 1 38 -3 42 -21z m658 -95 c14 -37 1 -45 -68 -47 -56
-1 -58 0 -61 26 -3 22 2 28 20 32 13 3 32 7 43 9 44 10 56 6 66 -20z m-366
-52 c0 -20 -7 -27 -34 -33 -18 -5 -47 -8 -65 -6 -25 2 -32 8 -34 30 -4 31 10
37 83 35 46 -2 50 -4 50 -26z"/>
<path d="M2550 3356 c0 -9 5 -16 10 -16 6 0 10 4 10 9 0 6 -4 13 -10 16 -5 3
-10 -1 -10 -9z"/>
<path d="M4570 3290 c0 -36 4 -50 14 -50 8 0 21 -3 30 -6 13 -5 16 3 16 50 0
56 0 56 -30 56 -29 0 -30 -1 -30 -50z"/>
<path d="M1988 3285 c-15 -8 -29 -24 -33 -34 -3 -11 -15 -23 -27 -27 -39 -12
-98 -75 -98 -103 l0 -28 44 42 c42 41 116 75 161 75 11 0 83 -15 158 -34 l137
-33 0 33 c0 40 -19 60 -68 73 -215 57 -231 59 -274 36z"/>
<path d="M4553 3212 c-13 -2 -23 -7 -23 -11 0 -12 29 -289 36 -338 4 -37 9
-43 29 -43 12 0 33 8 46 19 l23 18 -13 149 c-7 82 -18 160 -24 173 -13 27 -40
39 -74 33z"/>
<path d="M1969 3167 c-81 -30 -148 -105 -175 -194 -35 -115 -114 -468 -114
-510 0 -39 5 -51 38 -83 58 -59 147 -76 212 -42 18 10 50 43 69 72 20 29 43
58 52 63 17 10 172 -22 468 -97 127 -32 135 -37 146 -89 4 -21 16 -33 50 -47
57 -24 263 -75 271 -67 7 7 83 314 114 458 18 86 18 88 -2 150 -27 84 -65 139
-113 166 -56 31 -826 220 -930 229 -28 2 -66 -2 -86 -9z m206 -72 c156 -91
151 -314 -8 -397 -117 -61 -276 10 -314 141 -57 196 147 359 322 256z m473
-103 c2 -7 -3 -12 -12 -12 -20 0 -289 59 -294 65 -3 2 -2 10 1 17 4 11 36 6
153 -22 81 -20 150 -42 152 -48z m-163 -24 c69 -16 75 -19 75 -34 0 -18 -10
-18 -98 5 -81 21 -87 25 -77 40 6 11 15 10 100 -11z m433 -47 c139 -72 173
-236 73 -352 -124 -145 -358 -80 -394 109 -17 86 40 196 123 238 58 30 145 32
198 5z m-526 -199 c5 -5 6 -17 2 -26 -6 -14 -14 -17 -42 -12 -43 6 -57 19 -48
42 5 13 14 15 43 11 20 -4 40 -10 45 -15z m135 -34 c19 -15 3 -38 -26 -38 -37
0 -66 22 -58 44 6 14 14 16 39 11 18 -4 38 -12 45 -17z"/>
<path d="M1985 3086 c-39 -18 -80 -62 -99 -108 -79 -187 151 -360 306 -230 81
68 91 207 19 286 -54 59 -157 83 -226 52z m116 -26 c50 -14 60 -28 49 -73 l-8
-37 45 -12 45 -11 -7 -45 c-11 -73 -12 -74 -66 -67 -47 7 -48 6 -54 -22 -13
-55 -13 -56 -53 -49 -75 14 -74 13 -67 66 6 47 6 47 -26 54 -51 10 -58 20 -47
68 13 60 22 68 64 57 42 -12 54 -6 54 30 0 24 15 51 30 51 3 0 21 -5 41 -10z"/>
<path d="M2057 3033 c-2 -5 -7 -25 -11 -45 -6 -34 -9 -37 -34 -32 -60 12 -65
10 -73 -24 -6 -29 -4 -34 18 -43 13 -5 30 -9 38 -9 22 0 27 -17 16 -57 -12
-42 -4 -53 40 -53 23 0 27 5 33 41 l7 41 49 -7 c39 -5 50 -4 50 7 0 7 3 22 6
34 5 18 -1 23 -41 33 -36 9 -45 15 -41 29 14 47 17 70 9 75 -18 10 -62 17 -66
10z"/>
<path d="M2761 2908 c-19 -7 -54 -30 -77 -52 -82 -79 -84 -197 -6 -279 40 -43
81 -60 142 -61 73 -1 139 36 176 100 54 92 15 228 -79 277 -47 24 -110 30
-156 15z m121 -55 c34 -30 13 -93 -30 -93 -28 0 -62 29 -62 52 0 49 56 74 92
41z m-126 -88 c21 -33 6 -72 -31 -81 -50 -13 -86 53 -49 90 24 24 61 20 80 -9z
m221 -51 c15 -24 15 -29 2 -53 -29 -51 -99 -32 -99 28 0 34 17 51 52 51 19 0
33 -8 45 -26z m-143 -70 c20 -20 20 -43 0 -72 -19 -27 -48 -28 -74 -2 -36 36
-16 90 35 90 13 0 31 -7 39 -16z"/>
<path d="M2835 2819 c-10 -15 3 -25 16 -12 7 7 7 13 1 17 -6 3 -14 1 -17 -5z"/>
<path d="M2705 2741 c-3 -5 -1 -12 5 -16 5 -3 10 1 10 9 0 18 -6 21 -15 7z"/>
<path d="M2920 2680 c0 -5 5 -10 10 -10 6 0 10 5 10 10 0 6 -4 10 -10 10 -5 0
-10 -4 -10 -10z"/>
<path d="M2780 2610 c0 -5 5 -10 10 -10 6 0 10 5 10 10 0 6 -4 10 -10 10 -5 0
-10 -4 -10 -10z"/>
<path d="M2719 3117 c-26 -20 -42 -57 -27 -61 7 -2 58 -14 113 -26 196 -44
254 -82 300 -196 18 -44 26 -54 31 -41 11 30 -2 91 -29 133 -13 22 -27 53 -31
71 -12 51 -42 69 -173 102 -133 34 -160 36 -184 18z"/>
<path d="M4791 3091 c-8 -5 -11 -16 -6 -30 9 -29 -36 -51 -61 -30 -14 11 -18
11 -30 -6 -16 -22 -18 -39 -5 -63 4 -9 5 -46 1 -81 -6 -44 -5 -70 3 -83 10
-16 9 -21 -5 -29 -41 -23 -1 -73 50 -63 38 8 62 -9 62 -41 0 -18 7 -24 31 -27
25 -4 32 -1 39 17 11 29 60 43 72 21 13 -23 31 -20 58 9 17 19 20 28 12 38
-16 19 11 55 46 59 22 2 28 9 30 35 2 24 -1 33 -17 38 -26 8 -29 60 -5 73 9 5
14 18 12 33 -2 18 -10 25 -33 27 -41 5 -57 21 -51 48 5 18 0 28 -20 41 -25 16
-27 16 -39 0 -18 -24 -65 -22 -72 3 -6 21 -46 27 -72 11z m155 -135 c28 -28
34 -41 34 -77 -1 -53 -16 -84 -56 -110 -62 -41 -147 -8 -173 67 -13 36 -12 44
4 78 23 47 67 76 119 76 30 0 45 -7 72 -34z"/>
<path d="M3241 3061 c-24 -24 -24 -30 -11 -177 18 -190 24 -204 86 -204 41 0
40 -10 16 230 l-17 165 -27 3 c-17 2 -34 -4 -47 -17z"/>
<path d="M1575 2840 c-3 -6 -11 -8 -16 -5 -5 4 -9 -2 -10 -12 0 -10 -3 -13 -6
-5 -7 17 -33 15 -33 -4 0 -8 5 -24 10 -35 7 -13 7 -19 0 -19 -5 0 -10 5 -10
12 0 6 -3 9 -6 6 -3 -4 1 -17 9 -30 8 -12 17 -35 21 -50 4 -19 11 -26 21 -22
11 5 13 2 9 -9 -3 -9 -12 -13 -20 -10 -18 7 -18 -14 1 -33 12 -13 15 -12 25 5
7 13 16 18 27 14 13 -5 15 -2 11 15 -4 12 -2 22 3 22 5 0 9 7 9 15 0 8 -6 15
-12 15 -8 0 -9 3 -3 8 20 14 18 81 -3 107 -12 15 -23 21 -27 15z"/>
<path d="M4482 2687 c-7 -8 -8 -18 -1 -27 8 -13 11 -12 24 4 22 29 0 51 -23
23z"/>
<path d="M4540 2675 c0 -19 -7 -26 -27 -31 -16 -3 -44 -12 -65 -19 -31 -12
-38 -12 -48 1 -10 11 -16 12 -27 2 -29 -24 -36 -49 -18 -68 23 -26 4 -87 -28
-92 -18 -2 -23 -11 -25 -46 -3 -41 -2 -42 22 -36 20 5 27 1 41 -26 14 -26 15
-38 6 -58 -10 -21 -9 -28 10 -48 26 -28 38 -30 54 -8 17 24 67 6 75 -26 7 -31
31 -44 63 -36 20 5 27 13 27 31 0 33 51 62 70 40 18 -21 33 -19 60 10 22 23
22 26 7 43 -14 15 -15 24 -6 50 9 26 17 32 39 32 24 0 29 5 34 35 8 43 2 55
-27 55 -16 0 -26 9 -35 32 -10 28 -9 35 8 53 l20 21 -28 27 c-25 24 -30 25
-49 12 -30 -21 -73 0 -73 36 0 28 -16 39 -56 39 -19 0 -24 -5 -24 -25z m95
-135 c57 -54 51 -138 -14 -193 -59 -50 -150 -27 -184 46 -21 43 -21 58 -3 102
31 74 144 99 201 45z"/>
<path d="M4530 2458 c0 -4 5 -10 11 -13 6 -4 8 -14 5 -24 -4 -9 2 -5 13 9 11
13 17 28 15 32 -6 9 -44 6 -44 -4z"/>
<path d="M4108 2494 c-144 -132 -294 -221 -486 -288 -276 -96 -567 -99 -847
-9 -122 39 -168 61 -300 138 -62 37 -106 56 -140 60 l-50 7 30 -26 c149 -128
399 -243 615 -282 135 -25 406 -25 520 -1 198 42 384 121 540 228 94 64 208
164 240 210 l21 29 -35 0 c-30 0 -47 -10 -108 -66z"/>
<path d="M5075 2540 c-3 -5 -1 -10 4 -10 6 0 11 5 11 10 0 6 -2 10 -4 10 -3 0
-8 -4 -11 -10z"/>
<path d="M5107 2533 c-2 -5 0 -21 4 -38 3 -16 7 -28 8 -25 0 3 5 20 10 38 8
25 7 32 -4 32 -8 0 -16 -3 -18 -7z"/>
<path d="M1840 2269 c0 -5 5 -7 10 -4 6 3 10 8 10 11 0 2 -4 4 -10 4 -5 0 -10
-5 -10 -11z"/>
<path d="M3980 2147 c-79 -35 -98 -48 -113 -77 -25 -48 -19 -81 43 -238 65
-165 83 -193 138 -212 40 -14 44 -13 134 24 103 41 138 68 138 103 0 29 -33
63 -61 63 -11 0 -52 -13 -91 -30 -38 -16 -73 -30 -77 -30 -4 0 -15 16 -24 35
l-17 36 37 15 c134 55 143 61 143 97 0 39 -25 67 -59 67 -12 0 -54 -13 -93
-30 -38 -16 -71 -30 -73 -30 -4 0 -25 60 -25 70 0 4 26 17 58 29 93 35 122 56
122 89 0 34 -27 62 -61 62 -13 0 -67 -19 -119 -43z"/>
<path d="M2304 2150 c-76 -38 -108 -144 -65 -214 11 -17 49 -57 85 -89 36 -32
66 -62 66 -67 0 -5 -7 -16 -17 -25 -33 -34 -114 6 -128 63 -11 47 -33 72 -64
72 -41 0 -66 -33 -65 -85 3 -141 218 -243 333 -157 60 44 81 134 48 199 -9 17
-46 56 -81 85 -35 29 -67 59 -70 66 -9 20 29 51 56 45 33 -8 58 -33 58 -57 0
-38 28 -66 64 -66 97 0 79 149 -25 213 -64 39 -140 46 -195 17z"/>
<path d="M1870 2140 c0 -23 8 -24 44 -10 37 14 32 30 -9 30 -28 0 -35 -4 -35
-20z"/>
<path d="M2616 2038 c-34 -47 -7 -91 63 -103 27 -4 41 -12 41 -22 0 -8 -19
-93 -42 -189 -45 -189 -45 -197 7 -223 24 -12 30 -11 54 6 23 18 31 41 67 204
28 123 46 183 54 181 63 -15 102 -14 120 3 25 22 26 67 2 88 -18 16 -273 77
-323 77 -17 0 -34 -8 -43 -22z"/>
<path d="M3571 2021 c-93 -19 -131 -48 -131 -99 0 -35 68 -379 82 -415 13 -34
43 -48 79 -35 39 14 48 43 33 113 -7 33 -15 67 -19 76 -4 12 1 18 21 23 14 4
28 6 29 4 2 -2 31 -37 65 -78 34 -41 69 -79 76 -83 25 -14 66 -3 87 24 24 33
16 51 -54 126 -27 28 -49 56 -49 61 0 5 9 17 20 27 44 40 48 136 8 203 -40 65
-116 82 -247 53z m124 -107 c27 -11 38 -54 19 -75 -16 -18 -111 -46 -121 -36
-6 7 -23 90 -19 95 3 2 65 16 98 21 3 1 14 -2 23 -5z"/>
<path d="M3149 1990 c-55 -10 -101 -41 -136 -94 -40 -59 -53 -103 -53 -182 0
-169 90 -273 235 -274 74 0 125 26 172 88 41 54 53 98 53 197 0 59 -6 92 -21
125 -47 104 -145 159 -250 140z m108 -152 c42 -40 51 -152 17 -220 -37 -73
-140 -60 -174 22 -18 43 -9 144 17 178 40 55 94 63 140 20z"/>
<path d="M2556 1663 c-11 -11 -7 -43 6 -43 6 0 8 3 5 7 -4 3 -2 12 4 19 10 13
-3 29 -15 17z"/>
<path d="M3717 1470 c-3 -11 -1 -23 4 -26 5 -3 9 6 9 20 0 31 -6 34 -13 6z"/>
<path d="M3670 1429 c0 -5 5 -7 10 -4 6 3 10 8 10 11 0 2 -4 4 -10 4 -5 0 -10
-5 -10 -11z"/>
<path d="M914 3465 c-21 -32 -12 -68 21 -83 14 -7 30 -12 35 -12 19 0 50 40
50 64 0 56 -75 78 -106 31z"/>
<path d="M5436 3468 c-9 -12 -16 -30 -16 -40 0 -24 35 -58 60 -58 27 0 60 35
60 64 0 54 -74 78 -104 34z"/>
<path d="M3179 1189 c-28 -28 -23 -79 12 -98 22 -12 29 -12 55 0 41 20 46 68
8 98 -33 26 -49 26 -75 0z"/>
<path d="M5390 4720 c0 -5 5 -10 11 -10 5 0 7 5 4 10 -3 6 -8 10 -11 10 -2 0
-4 -4 -4 -10z"/>
</g>
</svg>
